<mxfile host="app.diagrams.net" modified="2022-04-09T15:51:01.383Z" agent="5.0 (Macintosh)" etag="DiENc9qIU5PzEmm_nECS" version="17.4.1" type="github">
  <diagram id="6AvIFJOSJAelDJ-_yjcQ" name="Page-1">
    <mxGraphModel dx="629" dy="924" grid="1" gridSize="10" guides="1" tooltips="1" connect="1" arrows="1" fold="1" page="1" pageScale="1" pageWidth="827" pageHeight="1169" math="0" shadow="0">
      <root>
        <mxCell id="0" />
        <mxCell id="1" parent="0" />
        <mxCell id="c3QXhOi12VkeVHjwzcVA-9" style="edgeStyle=orthogonalEdgeStyle;rounded=0;orthogonalLoop=1;jettySize=auto;html=1;exitX=0.5;exitY=1;exitDx=0;exitDy=0;endArrow=none;endFill=0;entryX=0.2;entryY=0;entryDx=0;entryDy=0;entryPerimeter=0;" edge="1" parent="1" source="c3QXhOi12VkeVHjwzcVA-1" target="c3QXhOi12VkeVHjwzcVA-2">
          <mxGeometry relative="1" as="geometry">
            <mxPoint x="190" y="430" as="targetPoint" />
          </mxGeometry>
        </mxCell>
        <mxCell id="c3QXhOi12VkeVHjwzcVA-1" value="core" style="rounded=0;whiteSpace=wrap;html=1;fillColor=#dae8fc;strokeColor=#6c8ebf;" vertex="1" parent="1">
          <mxGeometry x="160" y="360" width="60" height="60" as="geometry" />
        </mxCell>
        <mxCell id="c3QXhOi12VkeVHjwzcVA-15" style="edgeStyle=orthogonalEdgeStyle;rounded=0;orthogonalLoop=1;jettySize=auto;html=1;exitX=1;exitY=0.5;exitDx=0;exitDy=0;entryX=0;entryY=0.5;entryDx=0;entryDy=0;endArrow=none;endFill=0;" edge="1" parent="1" source="c3QXhOi12VkeVHjwzcVA-2" target="c3QXhOi12VkeVHjwzcVA-6">
          <mxGeometry relative="1" as="geometry" />
        </mxCell>
        <mxCell id="c3QXhOi12VkeVHjwzcVA-2" value="bus" style="rounded=0;whiteSpace=wrap;html=1;fillColor=#f8cecc;strokeColor=#b85450;" vertex="1" parent="1">
          <mxGeometry x="160" y="440" width="150" height="30" as="geometry" />
        </mxCell>
        <mxCell id="c3QXhOi12VkeVHjwzcVA-12" style="edgeStyle=orthogonalEdgeStyle;rounded=0;orthogonalLoop=1;jettySize=auto;html=1;exitX=0.5;exitY=1;exitDx=0;exitDy=0;endArrow=none;endFill=0;entryX=0.8;entryY=-0.016;entryDx=0;entryDy=0;entryPerimeter=0;" edge="1" parent="1" source="c3QXhOi12VkeVHjwzcVA-3" target="c3QXhOi12VkeVHjwzcVA-2">
          <mxGeometry relative="1" as="geometry">
            <mxPoint x="310" y="439" as="targetPoint" />
          </mxGeometry>
        </mxCell>
        <mxCell id="c3QXhOi12VkeVHjwzcVA-3" value="core" style="rounded=0;whiteSpace=wrap;html=1;fillColor=#dae8fc;strokeColor=#6c8ebf;" vertex="1" parent="1">
          <mxGeometry x="250" y="360" width="60" height="60" as="geometry" />
        </mxCell>
        <mxCell id="c3QXhOi12VkeVHjwzcVA-14" style="edgeStyle=orthogonalEdgeStyle;rounded=0;orthogonalLoop=1;jettySize=auto;html=1;exitX=0.5;exitY=0;exitDx=0;exitDy=0;entryX=0.8;entryY=1.002;entryDx=0;entryDy=0;entryPerimeter=0;endArrow=none;endFill=0;" edge="1" parent="1" source="c3QXhOi12VkeVHjwzcVA-4" target="c3QXhOi12VkeVHjwzcVA-2">
          <mxGeometry relative="1" as="geometry" />
        </mxCell>
        <mxCell id="c3QXhOi12VkeVHjwzcVA-4" value="core" style="rounded=0;whiteSpace=wrap;html=1;fillColor=#dae8fc;strokeColor=#6c8ebf;" vertex="1" parent="1">
          <mxGeometry x="250" y="490" width="60" height="60" as="geometry" />
        </mxCell>
        <mxCell id="c3QXhOi12VkeVHjwzcVA-13" style="edgeStyle=orthogonalEdgeStyle;rounded=0;orthogonalLoop=1;jettySize=auto;html=1;exitX=0.5;exitY=0;exitDx=0;exitDy=0;entryX=0.2;entryY=1;entryDx=0;entryDy=0;entryPerimeter=0;endArrow=none;endFill=0;" edge="1" parent="1" source="c3QXhOi12VkeVHjwzcVA-5" target="c3QXhOi12VkeVHjwzcVA-2">
          <mxGeometry relative="1" as="geometry" />
        </mxCell>
        <mxCell id="c3QXhOi12VkeVHjwzcVA-5" value="core" style="rounded=0;whiteSpace=wrap;html=1;fillColor=#dae8fc;strokeColor=#6c8ebf;" vertex="1" parent="1">
          <mxGeometry x="160" y="490" width="60" height="60" as="geometry" />
        </mxCell>
        <mxCell id="c3QXhOi12VkeVHjwzcVA-6" value="memory" style="rounded=0;whiteSpace=wrap;html=1;fillColor=#fff2cc;strokeColor=#d6b656;" vertex="1" parent="1">
          <mxGeometry x="340" y="425" width="60" height="60" as="geometry" />
        </mxCell>
        <mxCell id="c3QXhOi12VkeVHjwzcVA-34" style="edgeStyle=orthogonalEdgeStyle;rounded=0;orthogonalLoop=1;jettySize=auto;html=1;exitX=0.5;exitY=1;exitDx=0;exitDy=0;entryX=0.125;entryY=0;entryDx=0;entryDy=0;entryPerimeter=0;endArrow=none;endFill=0;" edge="1" parent="1" source="c3QXhOi12VkeVHjwzcVA-17" target="c3QXhOi12VkeVHjwzcVA-19">
          <mxGeometry relative="1" as="geometry" />
        </mxCell>
        <mxCell id="c3QXhOi12VkeVHjwzcVA-17" value="core" style="rounded=0;whiteSpace=wrap;html=1;fillColor=#dae8fc;strokeColor=#6c8ebf;" vertex="1" parent="1">
          <mxGeometry x="160" y="640" width="60" height="60" as="geometry" />
        </mxCell>
        <mxCell id="c3QXhOi12VkeVHjwzcVA-38" style="edgeStyle=orthogonalEdgeStyle;rounded=0;orthogonalLoop=1;jettySize=auto;html=1;exitX=0.5;exitY=1;exitDx=0;exitDy=0;entryX=0.5;entryY=0;entryDx=0;entryDy=0;endArrow=none;endFill=0;" edge="1" parent="1" source="c3QXhOi12VkeVHjwzcVA-19" target="c3QXhOi12VkeVHjwzcVA-32">
          <mxGeometry relative="1" as="geometry" />
        </mxCell>
        <mxCell id="c3QXhOi12VkeVHjwzcVA-19" value="bus" style="rounded=0;whiteSpace=wrap;html=1;fillColor=#f8cecc;strokeColor=#b85450;" vertex="1" parent="1">
          <mxGeometry x="160" y="720" width="240" height="30" as="geometry" />
        </mxCell>
        <mxCell id="c3QXhOi12VkeVHjwzcVA-36" style="edgeStyle=orthogonalEdgeStyle;rounded=0;orthogonalLoop=1;jettySize=auto;html=1;exitX=0.5;exitY=1;exitDx=0;exitDy=0;entryX=0.5;entryY=0;entryDx=0;entryDy=0;endArrow=none;endFill=0;" edge="1" parent="1" source="c3QXhOi12VkeVHjwzcVA-21" target="c3QXhOi12VkeVHjwzcVA-19">
          <mxGeometry relative="1" as="geometry" />
        </mxCell>
        <mxCell id="c3QXhOi12VkeVHjwzcVA-21" value="core" style="rounded=0;whiteSpace=wrap;html=1;fillColor=#dae8fc;strokeColor=#6c8ebf;" vertex="1" parent="1">
          <mxGeometry x="250" y="640" width="60" height="60" as="geometry" />
        </mxCell>
        <mxCell id="c3QXhOi12VkeVHjwzcVA-37" style="edgeStyle=orthogonalEdgeStyle;rounded=0;orthogonalLoop=1;jettySize=auto;html=1;exitX=0.5;exitY=1;exitDx=0;exitDy=0;entryX=0.875;entryY=0;entryDx=0;entryDy=0;entryPerimeter=0;endArrow=none;endFill=0;" edge="1" parent="1" source="c3QXhOi12VkeVHjwzcVA-26" target="c3QXhOi12VkeVHjwzcVA-19">
          <mxGeometry relative="1" as="geometry" />
        </mxCell>
        <mxCell id="c3QXhOi12VkeVHjwzcVA-26" value="memory" style="rounded=0;whiteSpace=wrap;html=1;fillColor=#fff2cc;strokeColor=#d6b656;" vertex="1" parent="1">
          <mxGeometry x="340" y="640" width="60" height="60" as="geometry" />
        </mxCell>
        <mxCell id="c3QXhOi12VkeVHjwzcVA-28" value="bus" style="rounded=0;whiteSpace=wrap;html=1;fillColor=#f8cecc;strokeColor=#b85450;" vertex="1" parent="1">
          <mxGeometry x="160" y="810" width="240" height="30" as="geometry" />
        </mxCell>
        <mxCell id="c3QXhOi12VkeVHjwzcVA-41" style="edgeStyle=orthogonalEdgeStyle;rounded=0;orthogonalLoop=1;jettySize=auto;html=1;exitX=0.5;exitY=0;exitDx=0;exitDy=0;entryX=0.5;entryY=1;entryDx=0;entryDy=0;endArrow=none;endFill=0;" edge="1" parent="1" source="c3QXhOi12VkeVHjwzcVA-29" target="c3QXhOi12VkeVHjwzcVA-28">
          <mxGeometry relative="1" as="geometry" />
        </mxCell>
        <mxCell id="c3QXhOi12VkeVHjwzcVA-29" value="core" style="rounded=0;whiteSpace=wrap;html=1;fillColor=#dae8fc;strokeColor=#6c8ebf;" vertex="1" parent="1">
          <mxGeometry x="250" y="860" width="60" height="60" as="geometry" />
        </mxCell>
        <mxCell id="c3QXhOi12VkeVHjwzcVA-40" style="edgeStyle=orthogonalEdgeStyle;rounded=0;orthogonalLoop=1;jettySize=auto;html=1;exitX=0.5;exitY=0;exitDx=0;exitDy=0;entryX=0.125;entryY=1;entryDx=0;entryDy=0;entryPerimeter=0;endArrow=none;endFill=0;" edge="1" parent="1" source="c3QXhOi12VkeVHjwzcVA-30" target="c3QXhOi12VkeVHjwzcVA-28">
          <mxGeometry relative="1" as="geometry" />
        </mxCell>
        <mxCell id="c3QXhOi12VkeVHjwzcVA-30" value="core" style="rounded=0;whiteSpace=wrap;html=1;fillColor=#dae8fc;strokeColor=#6c8ebf;" vertex="1" parent="1">
          <mxGeometry x="160" y="860" width="60" height="60" as="geometry" />
        </mxCell>
        <mxCell id="c3QXhOi12VkeVHjwzcVA-42" style="edgeStyle=orthogonalEdgeStyle;rounded=0;orthogonalLoop=1;jettySize=auto;html=1;exitX=0.5;exitY=0;exitDx=0;exitDy=0;entryX=0.875;entryY=1;entryDx=0;entryDy=0;entryPerimeter=0;endArrow=none;endFill=0;" edge="1" parent="1" source="c3QXhOi12VkeVHjwzcVA-31" target="c3QXhOi12VkeVHjwzcVA-28">
          <mxGeometry relative="1" as="geometry" />
        </mxCell>
        <mxCell id="c3QXhOi12VkeVHjwzcVA-31" value="memory" style="rounded=0;whiteSpace=wrap;html=1;fillColor=#fff2cc;strokeColor=#d6b656;" vertex="1" parent="1">
          <mxGeometry x="340" y="860" width="60" height="60" as="geometry" />
        </mxCell>
        <mxCell id="c3QXhOi12VkeVHjwzcVA-39" style="edgeStyle=orthogonalEdgeStyle;rounded=0;orthogonalLoop=1;jettySize=auto;html=1;exitX=0.5;exitY=1;exitDx=0;exitDy=0;entryX=0.5;entryY=0;entryDx=0;entryDy=0;endArrow=none;endFill=0;" edge="1" parent="1" source="c3QXhOi12VkeVHjwzcVA-32" target="c3QXhOi12VkeVHjwzcVA-28">
          <mxGeometry relative="1" as="geometry" />
        </mxCell>
        <mxCell id="c3QXhOi12VkeVHjwzcVA-32" value="router" style="rounded=0;whiteSpace=wrap;html=1;fillColor=#e1d5e7;strokeColor=#9673a6;" vertex="1" parent="1">
          <mxGeometry x="220" y="760" width="120" height="40" as="geometry" />
        </mxCell>
        <mxCell id="c3QXhOi12VkeVHjwzcVA-43" value="SMP 架构" style="text;html=1;strokeColor=none;fillColor=none;align=center;verticalAlign=middle;whiteSpace=wrap;rounded=0;" vertex="1" parent="1">
          <mxGeometry x="160" y="320" width="240" height="40" as="geometry" />
        </mxCell>
        <mxCell id="c3QXhOi12VkeVHjwzcVA-44" value="NUMA 架构" style="text;html=1;strokeColor=none;fillColor=none;align=center;verticalAlign=middle;whiteSpace=wrap;rounded=0;" vertex="1" parent="1">
          <mxGeometry x="160" y="600" width="240" height="40" as="geometry" />
        </mxCell>
      </root>
    </mxGraphModel>
  </diagram>
</mxfile>
